<?xml version="1.0" encoding="iso-8859-1"?>
<!-- Generator: Adobe Illustrator 17.1.0, SVG Export Plug-In . SVG Version: 6.00 Build 0)  -->
<svg version="1.1" id="Capa_1" xmlns="http://www.w3.org/2000/svg" xmlns:xlink="http://www.w3.org/1999/xlink" x="0px" y="0px"
	 viewBox="0 0 463.311 463.311" style="enable-background:new 0 0 463.311 463.311;" xml:space="preserve">
<g>
	<path d="M442.404,448.311h-50.976v-15.368c0-35.193-9.385-62.355-27.894-80.732c-23.593-23.424-53.202-23.477-54.407-23.474
		h-37.571v-22.734c0-0.396-0.04-0.783-0.099-1.163c24.057-9.94,39.261-26.522,48.519-40.897
		c14.433-22.41,17.689-43.977,17.82-44.884c0.052-0.357,0.078-0.716,0.078-1.076v-1.606c5.268-1.299,9.851-4.017,13.49-8.046
		c10.619-11.757,10.003-30.305,9.245-37.734c-0.577-5.654-3.135-10.399-7.398-13.722c-0.837-0.653-1.715-1.229-2.618-1.738v-31.588
		c0-29.754-11.365-57.722-32.866-80.88c-16.118-17.36-32.192-25.913-32.868-26.269c-2.431-1.279-5.366-1.126-7.651,0.398
		l-8.277,5.519c-30.854-26.129-61.542-22.189-62.895-22c-3.703,0.52-6.457,3.688-6.457,7.427v7.654
		c-27.811-3.079-46.348,5.969-47.201,6.395c-1.81,0.905-3.177,2.503-3.792,4.431c-0.615,1.928-0.424,4.022,0.528,5.808l3.986,7.473
		c1.055,4.363-1.618,7.324-11.464,16.029c-4.518,3.995-9.639,8.522-14.941,14.355c-16.233,17.856-13.756,69.112-12.609,84.46
		c-1.448,0.68-2.853,1.508-4.16,2.526c-4.263,3.322-6.822,8.067-7.399,13.723c-0.757,7.429-1.373,25.978,9.245,37.734
		c3.679,4.074,8.326,6.804,13.668,8.085v1.567c0,0.36,0.026,0.72,0.078,1.076c0.131,0.907,3.387,22.474,17.82,44.884
		c9.258,14.375,24.462,30.956,48.519,40.897c-0.059,0.38-0.099,0.767-0.099,1.163v22.734h-37.518
		c-1.227,0.018-30.869,0.051-54.46,23.474c-18.509,18.377-27.894,45.54-27.894,80.732v15.368H20.907c-4.142,0-7.5,3.358-7.5,7.5
		c0,4.142,3.358,7.5,7.5,7.5h421.497c4.142,0,7.5-3.358,7.5-7.5C449.904,451.669,446.546,448.311,442.404,448.311z M300.528,343.738
		c-2.973,35.401-32.716,63.305-68.873,63.305c-36.156,0-65.899-27.904-68.873-63.305h11.255
		c2.934,29.204,27.653,52.079,57.617,52.079s54.684-22.875,57.617-52.079H300.528z M340.231,198.277
		c-0.721,0.798-1.508,1.456-2.358,2.008v-33.6c0.822,0.096,1.645,0.231,2.432,0.42c0.436,0.175,0.89,0.311,1.36,0.401
		c0.883,0.31,1.684,0.7,2.323,1.198c0.725,0.565,1.493,1.412,1.697,3.414C346.577,180.858,345.612,192.32,340.231,198.277z
		 M137.792,79.978c4.752-5.227,9.547-9.466,13.778-13.207c10.363-9.162,20.151-17.815,15.698-32.282
		c-0.141-0.458-0.325-0.901-0.55-1.324l-0.302-0.566c7.909-2.216,21.749-4.538,39.215-1.108c2.202,0.432,4.479-0.144,6.21-1.567
		c1.732-1.425,2.735-3.55,2.735-5.792v-9.053c2.899,0.147,6.635,0.553,10.93,1.512c13.698,3.057,26.347,10,37.598,20.638
		c2.54,2.402,6.404,2.731,9.314,0.791l9.185-6.124c12.775,8.086,53.988,38.316,53.988,91.653v7.796
		c-0.009-0.008-0.016-0.018-0.025-0.026l-15.771-14.84V99.036c0-2.25-1.01-4.38-2.751-5.805
		c-1.959-1.602-20.992-15.655-85.271-15.655c-64.278,0-83.311,14.053-85.27,15.655c-1.741,1.425-2.751,3.556-2.751,5.805v17.442
		l-15.514,14.599C128.293,110.199,130.66,87.824,137.792,79.978z M122.902,198.277c-5.38-5.957-6.345-17.419-5.454-26.158
		c0.203-1.993,0.963-2.837,1.68-3.401c1.518-1.193,3.926-1.794,6.31-2.051v33.729C124.519,199.824,123.672,199.13,122.902,198.277z
		 M156.245,256.283c-11.735-18.011-15.267-35.842-15.808-38.914v-77.175l15.955-15.015c1.506-1.418,2.36-3.394,2.36-5.462v-16.378
		c6.93-3.35,27.424-10.765,73.021-10.765c45.597,0,66.091,7.415,73.022,10.765v16.378c0,2.068,0.854,4.044,2.36,5.462l15.717,14.79
		v77.398c-0.548,3.107-4.083,20.921-15.808,38.915c-16.808,25.798-41.946,39.985-74.713,42.169h-1.394
		C198.191,296.268,173.054,282.081,156.245,256.283z M199.255,343.738c4.142,0,7.5-3.358,7.5-7.5v-26.469
		c7.174,1.836,14.973,3.118,23.473,3.668c0.161,0.01,0.323,0.016,0.485,0.016h1.886c0.162,0,0.324-0.005,0.485-0.016
		c8.499-0.551,16.299-1.832,23.473-3.668v26.469c0,4.142,3.358,7.5,7.5,7.5h10.103c-2.855,20.911-20.822,37.079-42.504,37.079
		s-39.648-16.168-42.504-37.079H199.255z M86.883,432.944c0-72.829,44.016-86.206,60.902-88.657
		c3.275,43.42,39.626,77.756,83.87,77.756c44.235,0,80.58-34.321,83.868-77.729c8.542,1.282,24.2,5.395,37.442,18.542
		c15.568,15.457,23.462,39.039,23.462,70.088v15.368H86.883V432.944z"/>
	<circle cx="178.418" cy="155.635" r="8.951"/>
	<circle cx="284.893" cy="155.635" r="8.951"/>
	<path d="M231.367,208.363c13.648,0,19.21-9.734,19.619-16.276c0.01-0.156,0.015-0.312,0.015-0.468v-52.002
		c0-4.142-3.358-7.5-7.5-7.5c-4.142,0-7.5,3.358-7.5,7.5v51.477c-0.338,1.526-1.857,2.269-4.634,2.269
		c-2.583,0-3.906-0.585-4.068-1.025c-0.226-3.939-3.492-7.064-7.487-7.064c-4.142,0-7.5,3.358-7.5,7.5
		C212.311,199.04,217.386,208.363,231.367,208.363z"/>
	<path d="M278.15,248.375c2.601-3.225,2.095-7.946-1.129-10.546c-3.225-2.601-7.947-2.094-10.546,1.129
		c-0.08,0.1-9.089,9.939-32.971,9.939c-24.809,0-36.903-10.295-37.494-10.812c-3.061-2.749-7.773-2.519-10.552,0.528
		c-2.791,3.061-2.572,7.805,0.489,10.595c0.658,0.6,16.468,14.689,47.557,14.689C264.729,263.897,276.869,249.964,278.15,248.375z"
		/>
</g>
<g>
</g>
<g>
</g>
<g>
</g>
<g>
</g>
<g>
</g>
<g>
</g>
<g>
</g>
<g>
</g>
<g>
</g>
<g>
</g>
<g>
</g>
<g>
</g>
<g>
</g>
<g>
</g>
<g>
</g>
</svg>
